Big Mommas Like Father, like Son (2011) 720p NL SRT SUBS(DD5.1 & DTS)  

[img]http://img861.imageshack.us/img861/46/bigmommaslfls2011nlsubs.jpg[/img]
 
Momenteel te zien in 73 bioscopen 

Verenigde Staten 
Komedie 
107 minuten 

geregisseerd door John Whitesell 
met Martin Lawrence, Brandon T. Jackson en Faizon Love 

Malcolm moet opnieuw in actie komen wanneer zijn stiefzoon Trent getuige is 
geweest van een moord. Hij en Trent gaan daarom undercover op een kunstacademie 
voor jongedames, als Big Momma en Charmaine. Ondertussen zoeken ze door naar de 
moordenaar, maar die is ook op zoek naar hen... 

Momenteel te zien in 73 bioscopen 
 
http://www.moviemeter.nl/film/71616

English

Storyline
FBI agent Malcolm Turner and his 17-year-old son, Trent, go undercover at an all-girls performing arts school after Trent witnesses a murder. Posing as Big Momma and Charmaine, they must find the murderer before he finds them. 


 
http://www.imdb.com/title/tt1464174/




 
...bron: 720p BluRay DTS x264-DN 
...Beeld: 720 (1280*544) 
...Container: x264 (MKV) 
 
...Ondertitels: NEDERLANDS, 
...Audio: English DD5.1 & DTS (ac3 Toegevoegd) 

. 
Subtitles.NL.......: Vertaald door Tokke, Heksje en Suurtje Mooie Team!!! 
Controle...........: Suurtje 
Bewerking+Resync...: Suurtje, Klasse werk m8 thnx!!! 


 
  Format : x264HD 
  Source : Satelliet 
  Subtitle : Dutch subs optional  
  Genre : Comedy  
  Language : English audio  

Weblink :  http://www.moviemeter.nl/film/71616
Weblink :  http://www.imdb.com/title/tt1464174/

TBS


MEDIA INFO

eneral
Complete name                    : Big.Mommas.LFLS.2011.NLSUBS.x264.720p\Big.Mommas.LFLS.2011.NLSUBS.x264.720p.BluRay.AC3-DTS-SRT\Big.Mommas.LFLS.2011.NLSUBS.x264.720p.BluRay.AC3-DTS-SRT.mkv
Format                           : Matroska
File size                        : 4.82 GiB
Duration                         : 1h 42mn
Overall bit rate                 : 6 698 Kbps
Movie name                       : Big Mommas 2
Encoded date                     : UTC 2011-03-29 22:29:55
Writing application              : mkvmerge v2.3.0 ('Freak U') built on Sep  8 2008 18:32:16
Writing library                  : libebml v0.7.7 + libmatroska v0.8.1

Video
ID                               : 1
Format                           : AVC
Format/Info                      : Advanced Video Codec
Format profile                   : High@L4.0
Format settings, CABAC           : Yes
Format settings, ReFrames        : 3 frames
Muxing mode                      : Container profile=Unknown@4.0
Codec ID                         : V_MPEG4/ISO/AVC
Duration                         : 1h 42mn
Bit rate mode                    : Variable
Bit rate                         : 4 545 Kbps
Maximum bit rate                 : 25.0 Mbps
Width                            : 1 280 pixels
Height                           : 544 pixels
Display aspect ratio             : 2.35:1
Frame rate                       : 25.000 fps
Color space                      : YUV
Chroma subsampling               : 4:2:0
Bit depth                        : 8 bits
Scan type                        : Progressive
Bits/(Pixel*Frame)               : 0.261
Stream size                      : 3.17 GiB (66%)
Writing library                  : x264 core 112 r1867 22bfd31
Encoding settings                : cabac=1 / ref=3 / deblock=1:0:0 / analyse=0x3:0x133 / me=umh / subme=7 / psy=1 / psy_rd=1.00:0.00 / mixed_ref=1 / me_range=16 / chroma_me=1 / trellis=1 / 8x8dct=1 / cqm=0 / deadzone=21,11 / fast_pskip=1 / chroma_qp_offset=-2 / threads=6 / sliced_threads=0 / nr=0 / decimate=1 / interlaced=0 / constrained_intra=0 / bframes=3 / b_pyramid=0 / b_adapt=1 / b_bias=0 / direct=1 / weightb=1 / open_gop=0 / weightp=2 / keyint=250 / keyint_min=25 / scenecut=40 / intra_refresh=0 / rc_lookahead=40 / rc=2pass / mbtree=1 / bitrate=4545 / ratetol=1.0 / qcomp=0.60 / qpmin=0 / qpmax=51 / qpstep=4 / cplxblur=20.0 / qblur=0.5 / vbv_maxrate=25000 / vbv_bufsize=25000 / nal_hrd=vbr / ip_ratio=1.40 / aq=1:1.00

Audio #1
ID                               : 2
Format                           : AC-3
Format/Info                      : Audio Coding 3
Mode extension                   : CM (complete main)
Codec ID                         : A_AC3
Duration                         : 1h 42mn
Bit rate mode                    : Constant
Bit rate                         : 640 Kbps
Channel(s)                       : 6 channels
Channel positions                : Front: L C R, Side: L R, LFE
Sampling rate                    : 48.0 KHz
Bit depth                        : 16 bits
Stream size                      : 471 MiB (10%)
Title                            : English AC3
Language                         : English

Audio #2
ID                               : 3
Format                           : DTS
Format/Info                      : Digital Theater Systems
Codec ID                         : A_DTS
Duration                         : 1h 42mn
Bit rate mode                    : Constant
Bit rate                         : 1 510 Kbps
Channel(s)                       : 6 channels
Channel positions                : Front: L C R, Side: L R, LFE
Sampling rate                    : 48.0 KHz
Bit depth                        : 24 bits
Stream size                      : 1.09 GiB (23%)
Title                            : English DTS
Language                         : English

Text
ID                               : 4
Format                           : UTF-8
Codec ID                         : S_TEXT/UTF8
Codec ID/Info                    : UTF-8 Plain Text
Title                            : Nederlands SRT
Language                         : Dutch

